<svg xmlns="http://www.w3.org/2000/svg" width="25.065" height="46.474" viewBox="0 0 25.065 46.474">
  <path id="Facebook" d="M774.7,1851.548l-6.012-.01c-6.754,0-11.119,4.489-11.119,11.437v5.273h-6.044a.947.947,0,0,0-.945.948v7.641a.947.947,0,0,0,.945.948h6.044v19.279a.946.946,0,0,0,.945.947H766.4a.946.946,0,0,0,.945-.947v-19.279h7.068a.947.947,0,0,0,.945-.948l0-7.641a.947.947,0,0,0-.946-.948h-7.07v-4.47c0-2.149.511-3.239,3.3-3.239l4.05,0a.946.946,0,0,0,.945-.948V1852.5A.947.947,0,0,0,774.7,1851.548Z" transform="translate(-750.579 -1851.538)" fill="#fff"/>
</svg>
