<svg xmlns="http://www.w3.org/2000/svg" width="10.413" height="9.939" viewBox="0 0 10.413 9.939">
  <g id="Group_32" data-name="Group 32" transform="translate(-735.454 -431.609)">
    <g id="Group_31" data-name="Group 31">
      <g id="Group_28" data-name="Group 28">
        <path id="Path_35" data-name="Path 35" d="M742.656,441.548h-3.99a3.215,3.215,0,0,1-3.212-3.211v-3.516a3.216,3.216,0,0,1,3.212-3.212h3.99a3.215,3.215,0,0,1,3.211,3.212v3.516A3.214,3.214,0,0,1,742.656,441.548Zm-3.99-9.225a2.5,2.5,0,0,0-2.5,2.5v3.516a2.5,2.5,0,0,0,2.5,2.5h3.99a2.5,2.5,0,0,0,2.5-2.5v-3.516a2.5,2.5,0,0,0-2.5-2.5Z" fill="#fff"/>
      </g>
      <g id="Group_29" data-name="Group 29">
        <path id="Path_36" data-name="Path 36" d="M740.661,439.437a2.859,2.859,0,1,1,2.859-2.858A2.861,2.861,0,0,1,740.661,439.437Zm0-5a2.145,2.145,0,1,0,2.145,2.146A2.148,2.148,0,0,0,740.661,434.433Z" fill="#fff"/>
      </g>
      <g id="Group_30" data-name="Group 30">
        <path id="Path_37" data-name="Path 37" d="M744.069,433.808a.593.593,0,1,1-.593-.594A.594.594,0,0,1,744.069,433.808Z" fill="#fff"/>
      </g>
    </g>
  </g>
</svg>
