<svg xmlns="http://www.w3.org/2000/svg" width="52.263" height="42.692" viewBox="0 0 52.263 42.692">
  <path id="Twitter" d="M408.267,1859.517a22.246,22.246,0,0,1-6.174,1.7,10.7,10.7,0,0,0,4.714-5.954,21.341,21.341,0,0,1-6.794,2.608,10.7,10.7,0,0,0-18.534,7.366,11.153,11.153,0,0,0,.248,2.456,30.273,30.273,0,0,1-22.084-11.267,10.813,10.813,0,0,0,3.293,14.4,10.535,10.535,0,0,1-4.841-1.327v.118a10.808,10.808,0,0,0,8.585,10.584,10.654,10.654,0,0,1-2.809.354,9.427,9.427,0,0,1-2.029-.184,10.824,10.824,0,0,0,10.011,7.5,21.456,21.456,0,0,1-13.285,4.594,19.959,19.959,0,0,1-2.564-.148,30.045,30.045,0,0,0,16.437,4.834c19.716,0,30.5-16.42,30.5-30.653,0-.476-.016-.936-.039-1.393A21.438,21.438,0,0,0,408.267,1859.517Z" transform="translate(-356.004 -1854.463)" fill="#fff"/>
</svg>
